<svg width="1440" height="844" viewBox="0 0 1440 844" fill="none" xmlns="http://www.w3.org/2000/svg">
<g clip-path="url(#clip0_562_525)">
<g opacity="0.5">
<rect x="-131.5" y="231.5" width="356" height="200" rx="36.5" fill="#FEFCFB" stroke="#EDE1D2" stroke-width="7"/>
<rect x="243.5" y="459.5" width="356" height="200" rx="36.5" fill="#FEFCFB" stroke="#EDE1D2" stroke-width="7"/>
<rect x="243.5" y="231.5" width="180" height="200" rx="36.5" fill="#FEFCFB" stroke="#EDE1D2" stroke-width="7"/>
<rect x="618.5" y="459.5" width="180" height="200" rx="36.5" fill="#FEFCFB" stroke="#EDE1D2" stroke-width="7"/>
<rect x="1333.5" y="231.5" width="180" height="200" rx="36.5" fill="#FEFCFB" stroke="#EDE1D2" stroke-width="7"/>
<rect x="41.5" y="459.5" width="180" height="200" rx="36.5" fill="#FEFCFB" stroke="#EDE1D2" stroke-width="7"/>
<rect x="444.5" y="231.5" width="267" height="200" rx="36.5" fill="#FEFCFB" stroke="#EDE1D2" stroke-width="7"/>
<rect x="819.5" y="459.5" width="267" height="200" rx="36.5" fill="#FEFCFB" stroke="#EDE1D2" stroke-width="7"/>
<rect x="733.5" y="231.5" width="267" height="200" rx="36.5" fill="#FEFCFB" stroke="#EDE1D2" stroke-width="7"/>
<rect x="1108.5" y="459.5" width="267" height="200" rx="36.5" fill="#FEFCFB" stroke="#EDE1D2" stroke-width="7"/>
<rect x="1028.5" y="231.5" width="283" height="200" rx="36.5" fill="#FEFCFB" stroke="#EDE1D2" stroke-width="7"/>
<rect x="-99.5" y="459.5" width="119" height="200" rx="36.5" fill="#FEFCFB" stroke="#EDE1D2" stroke-width="7"/>
<rect x="1394.5" y="459.5" width="119" height="200" rx="36.5" fill="#FEFCFB" stroke="#EDE1D2" stroke-width="7"/>
<rect x="53.5" y="3.5" width="356" height="200" rx="36.5" fill="#FEFCFB" stroke="#EDE1D2" stroke-width="7"/>
<rect x="428.5" y="3.5" width="180" height="200" rx="36.5" fill="#FEFCFB" stroke="#EDE1D2" stroke-width="7"/>
<rect x="629.5" y="3.5" width="267" height="200" rx="36.5" fill="#FEFCFB" stroke="#EDE1D2" stroke-width="7"/>
<rect x="918.5" y="3.5" width="267" height="200" rx="36.5" fill="#FEFCFB" stroke="#EDE1D2" stroke-width="7"/>
<rect x="1213.5" y="3.5" width="283" height="200" rx="36.5" fill="#FEFCFB" stroke="#EDE1D2" stroke-width="7"/>
<rect x="37.5" y="684.5" width="356" height="200" rx="36.5" fill="#FEFCFB" stroke="#EDE1D2" stroke-width="7"/>
<rect x="412.5" y="684.5" width="180" height="200" rx="36.5" fill="#FEFCFB" stroke="#EDE1D2" stroke-width="7"/>
<rect x="613.5" y="684.5" width="267" height="200" rx="36.5" fill="#FEFCFB" stroke="#EDE1D2" stroke-width="7"/>
<rect x="902.5" y="684.5" width="267" height="200" rx="36.5" fill="#FEFCFB" stroke="#EDE1D2" stroke-width="7"/>
<rect x="1197.5" y="684.5" width="283" height="200" rx="36.5" fill="#FEFCFB" stroke="#EDE1D2" stroke-width="7"/>
</g>
</g>
<defs>
<clipPath id="clip0_562_525">
<rect width="1440" height="844" fill="white"/>
</clipPath>
</defs>
</svg>
